<svg data-v-fde0c5aa="" xmlns="http://www.w3.org/2000/svg" viewBox="0 0 300 300" class="icon"><!----><defs data-v-fde0c5aa=""><!----></defs><rect data-v-fde0c5aa="" fill="transparent" x="0" y="0" width="300px" height="300px" class="logo-background-square"></rect><!----><defs data-v-fde0c5aa=""><linearGradient data-v-fde0c5aa="" gradientTransform="rotate(25)" id="33abc2c0-30e3-491b-a93f-61a4d1bda01f" x1="0%" y1="0%" x2="100%" y2="0%"><stop data-v-fde0c5aa="" offset="0%" stop-color="#e31c72" stop-opacity="1"></stop><stop data-v-fde0c5aa="" offset="100%" stop-color="#a42cd6" stop-opacity="1"></stop></linearGradient></defs><g data-v-fde0c5aa="" id="e76ad300-c5c8-48d1-b12b-67e808c9cbde" fill="url(#33abc2c0-30e3-491b-a93f-61a4d1bda01f)" stroke="none" transform="matrix(2.619047619047619,0,0,2.619047619047619,19.047619047619047,19.04761904761905)"><path d="M15 72.625c13.5 7 56.5 7 70 0l7-40.5c-3.5-.5-6.5 2.5-6.5 7-5.5-3.5-10-1-10 6 0 3.5 1.5 6.5 1.5 9 0 3.5-3.5 6.5-8.5 6.5-5.5 0-9.5-3-9.5-7.5s4-4 4-9c0-4-3-7-7-7 4-5.5 1-15-6-15s-10 9.5-6 15c-4-.5-7 2.5-7 7 0 5 4 4.5 4 9s-4 7.5-9.5 7.5c-5 0-8.5-3-8.5-6.5 0-2.5 1.5-5.5 1.5-9 0-7-4.5-9.5-10-6 0-4.5-3-7.5-6.5-7l7 40.5z"></path></g><!----></svg>