<?xml version="1.0" encoding="UTF-8" standalone="no"?>
<svg
   xmlns:dc="http://purl.org/dc/elements/1.1/"
   xmlns:cc="http://creativecommons.org/ns#"
   xmlns:rdf="http://www.w3.org/1999/02/22-rdf-syntax-ns#"
   xmlns:svg="http://www.w3.org/2000/svg"
   xmlns="http://www.w3.org/2000/svg"
   xmlns:sodipodi="http://sodipodi.sourceforge.net/DTD/sodipodi-0.dtd"
   xmlns:inkscape="http://www.inkscape.org/namespaces/inkscape"
   data-v-423bf9ae=""
   viewBox="0 0 443 90"
   class="iconLeftSlogan"
   version="1.1"
   id="svg18"
   sodipodi:docname="default-monochrome.svg"
   inkscape:version="0.92.4 (5da689c313, 2019-01-14)">
  <metadata
     id="metadata22">
    <rdf:RDF>
      <cc:Work
         rdf:about="">
        <dc:format>image/svg+xml</dc:format>
        <dc:type
           rdf:resource="http://purl.org/dc/dcmitype/StillImage" />
      </cc:Work>
    </rdf:RDF>
  </metadata>
  <sodipodi:namedview
     pagecolor="#ffffff"
     bordercolor="#666666"
     borderopacity="1"
     objecttolerance="10"
     gridtolerance="10"
     guidetolerance="10"
     inkscape:pageopacity="0"
     inkscape:pageshadow="2"
     inkscape:window-width="1366"
     inkscape:window-height="705"
     id="namedview20"
     showgrid="false"
     inkscape:zoom="1.6343115"
     inkscape:cx="201.01055"
     inkscape:cy="-23.795889"
     inkscape:window-x="-8"
     inkscape:window-y="-8"
     inkscape:window-maximized="1"
     inkscape:current-layer="svg18" />
  <!---->
  <!---->
  <!---->
  <g
     data-v-423bf9ae=""
     id="d95feb39-270c-48b4-9eb6-08df61229287"
     fill="#000000"
     transform="matrix(6.054490506946714,0,0,6.054490506946714,148.76381275399146,-10.171544694269905)">
    <path
       d="M8.08 2.21L8.08 10.01L2.35 2.21L1.13 2.21L1.13 11.48L2.18 11.48L2.18 3.65L7.91 11.48L9.13 11.48L9.13 2.21ZM14 4.37C11.96 4.37 10.61 5.98 10.61 7.98C10.61 9.98 11.96 11.59 14 11.59C15.16 11.59 15.99 11.12 16.51 10.36L16.51 11.48L17.56 11.48L17.56 4.48L16.51 4.48L16.51 5.61C15.99 4.86 15.16 4.37 14 4.37ZM14.14 10.64C12.59 10.64 11.66 9.42 11.66 7.98C11.66 6.54 12.59 5.32 14.14 5.32C15.69 5.32 16.56 6.54 16.56 7.98C16.56 9.42 15.69 10.64 14.14 10.64ZM19.38 11.48L20.43 11.48L20.43 4.48L19.38 4.48ZM19.33 1.93L19.33 3.30L20.47 3.30L20.47 1.93ZM23.30 1.68L22.25 1.68L22.25 11.48L23.30 11.48ZM27.55 4.37C25.75 4.37 24.81 5.11 24.81 6.37C24.81 8.93 29.47 7.84 29.47 9.59C29.47 10.54 28.25 10.70 27.68 10.70C26.32 10.70 25.79 10.00 25.72 9.28L24.63 9.28C24.70 10.51 25.72 11.59 27.66 11.59C29.40 11.59 30.52 10.85 30.52 9.49C30.52 6.86 25.86 7.95 25.86 6.27C25.86 5.59 26.43 5.26 27.52 5.26C28.70 5.26 29.15 5.75 29.23 6.36L30.30 6.36C30.17 5.33 29.40 4.37 27.55 4.37ZM39.21 2.21L39.21 8.37C39.21 9.32 38.98 10.57 37.30 10.57C35.98 10.57 35.35 9.73 35.24 9.00L34.15 9.00C34.27 10.26 35.24 11.59 37.24 11.59C39.48 11.59 40.26 10.04 40.26 8.41L40.26 2.21ZM42.45 2.21L42.45 11.48L48.55 11.48L48.55 10.47L43.50 10.47L43.50 2.21Z"
       id="path2" />
  </g>
  <defs
     data-v-423bf9ae=""
     id="defs10">
    <linearGradient
       data-v-423bf9ae=""
       gradientTransform="rotate(25)"
       id="fc6e58cf-3497-438d-817d-be39fb917758"
       x1="0%"
       y1="0%"
       x2="100%"
       y2="0%">
      <stop
         data-v-423bf9ae=""
         offset="0%"
         style="stop-color: rgb(227, 28, 114); stop-opacity: 1;"
         id="stop5" />
      <stop
         data-v-423bf9ae=""
         offset="100%"
         style="stop-color: rgb(164, 44, 214); stop-opacity: 1;"
         id="stop7" />
    </linearGradient>
  </defs>
  <g
     data-v-423bf9ae=""
     id="aa551e75-9b89-42ae-bfdb-bc2a4ff50fac"
     transform="matrix(1.6143497757847534,0,0,1.6143497757847534,-12.717488789237663,-35.59248878923766)"
     stroke="none"
     fill="url(#fc6e58cf-3497-438d-817d-be39fb917758)">
    <path
       d="M15 72.625c13.5 7 56.5 7 70 0l7-40.5c-3.5-.5-6.5 2.5-6.5 7-5.5-3.5-10-1-10 6 0 3.5 1.5 6.5 1.5 9 0 3.5-3.5 6.5-8.5 6.5-5.5 0-9.5-3-9.5-7.5s4-4 4-9c0-4-3-7-7-7 4-5.5 1-15-6-15s-10 9.5-6 15c-4-.5-7 2.5-7 7 0 5 4 4.5 4 9s-4 7.5-9.5 7.5c-5 0-8.5-3-8.5-6.5 0-2.5 1.5-5.5 1.5-9 0-7-4.5-9.5-10-6 0-4.5-3-7.5-6.5-7l7 40.5z"
       id="path12" />
  </g>
  <!---->
  <g
     data-v-423bf9ae=""
     id="d55bd019-a9d3-4fb3-a1df-b0451942e9fc"
     transform="matrix(1.7269409,0,0,1.7269409,154.33727,60.775088)"
     style="fill:#000000">
    <path
       d="M 0.77,3.64 H 0.38 L 0.4,3.08 h 3.1 v 0 q 1.74,0 2.52,0.67 v 0 0 q 0.77,0.67 0.77,1.62 v 0 0 q 0,0.71 -0.54,1.23 v 0 0 Q 5.69,7.14 5,7.35 v 0 0 q 1.08,0.22 1.61,0.99 v 0 0 q 0.52,0.74 0.51,1.67 v 0 0 q 0,1 -0.63,1.58 v 0 0 q -0.6,0.54 -1.55,0.69 v 0 0 q -0.92,0.13 -2.47,0.13 v 0 H 0.49 v -0.54 h 0.42 v 0 q 0.36,0 0.47,-0.07 v 0 0 Q 1.5,11.73 1.5,11.46 v 0 -7.32 0 Q 1.5,3.81 1.35,3.72 v 0 0 Q 1.21,3.64 0.77,3.64 Z M 2.6,7.59 v 0 l 0.03,3.76 v 0 q 0,0.28 0.17,0.36 v 0 0 q 0.17,0.09 0.74,0.09 v 0 0 q 2.26,0 2.26,-1.89 v 0 0 Q 5.8,9.22 5.48,8.73 v 0 0 Q 5.16,8.24 4.63,8.02 v 0 0 Q 4.05,7.75 3.61,7.68 v 0 0 Q 3.13,7.59 2.6,7.59 Z M 2.63,4.01 v 3.18 h 1.38 v 0 q 0.65,0 1.07,-0.53 v 0 0 Q 5.48,6.15 5.49,5.54 v 0 0 Q 5.49,4.85 4.9,4.27 v 0 0 Q 4.33,3.69 3.05,3.69 v 0 0 q -0.42,0 -0.42,0.32 z M 15.31,3.64 v 0 l 0.02,-0.56 h 3.13 v 0.56 h -0.28 v 0 q -0.45,0 -0.56,0.02 v 0 0 q -0.17,0.05 -0.17,0.16 v 0 0 q 0,0.07 0.26,0.49 v 0 l 2,3.15 2.45,-3.47 v 0 q 0.08,-0.16 0.08,-0.17 v 0 0 q 0,-0.18 -0.91,-0.18 v 0 H 21.11 L 21.1,3.08 h 2.54 v 0.56 h -0.07 v 0 q -0.35,0 -0.49,0.08 v 0 0 q -0.16,0.08 -0.45,0.5 v 0 l -2.72,3.95 v 3.05 0 q 0,0.44 0.11,0.55 v 0 0 q 0.09,0.1 0.71,0.1 v 0 h 0.63 l -0.02,0.54 h -3.93 l 0.01,-0.54 h 0.57 v 0 q 0.53,0 0.66,-0.08 v 0 0 q 0.12,-0.09 0.12,-0.54 v 0 -3.19 l -2.3,-3.57 v 0 Q 16.06,3.84 15.93,3.73 v 0 0 Q 15.82,3.64 15.31,3.64 Z m 26.13,0 h -0.49 l 0.01,-0.56 h 3.59 v 0.56 h -0.64 v 0 q -0.37,0 -0.48,0.08 v 0 0 Q 43.31,3.8 43.31,4.16 v 0 7.06 0 q 0,0.35 0.09,0.45 v 0 0 q 0.08,0.1 0.38,0.1 v 0 0 q 2.87,-0.03 3.52,-0.14 v 0 0 q 0.22,-0.02 0.3,-0.24 v 0 0 q 0.08,-0.22 0.28,-1.34 v 0 l 0.49,0.03 -0.46,2.33 h -6.76 l -0.02,-0.54 h 0.39 v 0 q 0.51,0 0.58,-0.07 v 0 0 q 0.08,-0.08 0.08,-0.47 v 0 -7.24 0 q 0,-0.29 -0.15,-0.37 v 0 0 Q 41.88,3.64 41.44,3.64 Z m 15.05,4.19 v 0 0 q 0,-1.21 0.4,-2.15 v 0 0 Q 57.31,4.72 58,4.12 v 0 0 q 0.69,-0.61 1.55,-0.93 v 0 0 q 0.84,-0.31 1.79,-0.31 v 0 0 q 1.26,0 2.31,0.52 v 0 0 q 1.08,0.53 1.79,1.67 v 0 0 q 0.7,1.1 0.7,2.68 v 0 0 q 0,0.95 -0.3,1.79 v 0 0 q -0.31,0.84 -0.92,1.56 v 0 0 q -0.6,0.71 -1.54,1.12 v 0 0 q -0.96,0.41 -2.15,0.42 v 0 0 q -1.14,0 -2.07,-0.41 v 0 0 q -0.94,-0.4 -1.5,-1.09 v 0 0 Q 57.09,10.45 56.79,9.6 v 0 0 q -0.3,-0.88 -0.3,-1.77 z m 1.25,-0.45 v 0 0 q 0,1.14 0.43,2.22 v 0 0 q 0.41,1.04 1.34,1.73 v 0 0 q 0.91,0.7 2.1,0.71 v 0 0 q 1.37,0 2.31,-1.03 v 0 0 Q 64.87,9.97 64.87,8.1 v 0 0 q 0,-2.11 -1.17,-3.38 v 0 0 Q 62.56,3.46 61.04,3.45 v 0 0 q -0.51,0 -1.06,0.2 v 0 0 q -0.54,0.2 -1.05,0.6 v 0 0 q -0.54,0.43 -0.87,1.23 v 0 0 q -0.32,0.79 -0.32,1.9 z M 74.59,3.64 H 74.2 l 0.02,-0.56 h 3.22 v 0 q 1.13,0 1.73,0.13 v 0 0 q 0.65,0.16 1.11,0.54 v 0 0 q 1.01,0.82 1.01,1.96 v 0 0 q 0,0.72 -0.48,1.33 v 0 0 q -0.49,0.62 -1.52,0.88 v 0 l 2.69,3.57 v 0 q 0.3,0.38 0.6,0.38 v 0 h 0.6 l 0.03,0.54 h -2.03 l -3,-4.31 h -0.17 v 0 q -0.04,0 -0.09,0.01 v 0 0 q -0.06,0 -0.07,0 v 0 0 q -0.88,0 -1.28,-0.08 v 0 3.43 0 q 0,0.3 0.14,0.35 v 0 0 q 0.13,0.06 0.83,0.06 v 0 h 0.71 l -0.03,0.54 H 74.5 v -0.54 h 0.32 v 0 q 0.46,0 0.53,-0.06 v 0 0 q 0.08,-0.07 0.08,-0.35 v 0 -7.32 0 q 0,-0.32 -0.19,-0.41 v 0 0 Q 75.02,3.64 74.59,3.64 Z m 1.98,0.64 v 3.29 0 q 0.18,0.13 0.89,0.14 v 0 0 q 1.28,0 1.86,-0.44 v 0 0 q 0.59,-0.43 0.59,-1.35 v 0 0 q 0,-1 -0.78,-1.65 v 0 0 Q 78.37,3.64 76.99,3.64 v 0 0 q -0.25,0 -0.33,0.11 v 0 0 Q 76.58,3.84 76.57,4.28 Z M 90.97,3.64 90.96,3.08 h 7.21 v 0 q 0.01,1.06 0.07,2.2 v 0 L 97.69,5.3 v 0 Q 97.68,4.66 97.62,4.25 v 0 0 Q 97.58,3.89 97.53,3.8 v 0 0 Q 97.47,3.71 97.36,3.69 v 0 0 Q 97.26,3.68 96.67,3.68 v 0 h -2.38 v 0 q -0.54,0 -0.69,0.09 v 0 0 q -0.12,0.09 -0.12,0.56 v 0 1.95 0 q 0,0.41 0.06,0.48 v 0 0 q 0.06,0.08 0.41,0.08 v 0 h 2.11 v 0 q 0.36,0 0.44,-0.11 v 0 0 q 0.08,-0.1 0.09,-0.59 v 0 -0.53 l 0.51,0.02 v 3.34 h -0.51 v -0.73 0 q 0,-0.58 -0.07,-0.67 v 0 0 Q 96.43,7.46 96.09,7.46 v 0 h -2.1 v 0 q -0.34,0 -0.42,0.08 v 0 0 q -0.09,0.09 -0.09,0.35 v 0 3.31 0 q 0,0.37 0.09,0.47 v 0 0 q 0.08,0.1 0.36,0.1 v 0 0 q 2.91,-0.02 3.44,-0.08 v 0 0 q 0.52,-0.06 0.6,-0.31 v 0 l 0.01,-0.02 0.01,-0.01 0.22,-1.18 0.48,0.08 -0.35,2.16 h -7.1 v -0.54 h 0.37 v 0 q 0.56,0 0.64,-0.07 v 0 0 q 0.1,-0.08 0.1,-0.47 v 0 -7.09 0 q 0,-0.42 -0.15,-0.51 v 0 0 Q 92.03,3.64 91.37,3.64 v 0 z m 15.61,0 -0.01,-0.56 h 2.17 l 5.73,7.4 v -6.34 0 q 0,-0.33 -0.15,-0.42 v 0 0 q -0.15,-0.08 -0.61,-0.08 v 0 h -0.49 l 0.02,-0.56 h 2.98 v 0.56 h -0.32 v 0 q -0.46,0 -0.61,0.11 v 0 0 q -0.15,0.11 -0.15,0.5 v 0 8.07 0.15 0 q 0,0.05 -0.02,0.1 v 0 0 q -0.01,0.04 -0.04,0.07 v 0 0 q -0.02,0.01 -0.07,0.01 v 0 h -0.19 -0.07 -0.02 l -0.03,-0.01 v 0 q -0.03,0 -0.04,-0.01 v 0 0 q -0.01,-0.02 -0.01,-0.03 v 0 0 q 0,-0.02 -0.02,-0.03 v 0 0 q -0.03,-0.03 -0.05,-0.07 v 0 0 q -0.02,-0.02 -0.04,-0.05 v 0 0 q -0.02,-0.04 -0.03,-0.05 v 0 l -6.11,-7.84 0.07,6.66 v 0 q 0,0.45 0.17,0.55 v 0 0 q 0.15,0.1 0.86,0.1 v 0 h 0.24 v 0.54 h -2.94 v -0.54 h 0.43 v 0 q 0.37,0 0.48,-0.11 v 0 0 q 0.1,-0.1 0.11,-0.51 v 0 -7.45 l -0.15,-0.16 z m 17.4,8.77 -0.02,-0.54 h 0.17 v 0 q 0.39,0 0.52,-0.14 v 0 0 q 0.13,-0.16 0.46,-0.9 v 0 l 0.91,-2.01 0.57,-1.29 v 0 q 0.27,-0.56 0.31,-0.67 v 0 0 q 0.07,-0.16 0.12,-0.26 v 0 0 q 0.05,-0.09 0.07,-0.15 v 0 l 0.09,-0.24 1.43,-3.47 h 0.3 v 0 q 0.85,2.24 3.04,7.51 v 0 0 q 0.45,1.09 0.64,1.39 v 0 0 q 0.14,0.23 0.57,0.23 v 0 h 0.22 l -0.02,0.54 h -3.19 l 0.01,-0.54 h 0.42 v 0 q 0.62,0 0.62,-0.17 v 0 0 q 0,-0.07 -0.14,-0.43 v 0 l -1.04,-2.55 h -3.25 l -1.1,2.46 v 0 q -0.14,0.32 -0.14,0.45 v 0 0 q 0,0.16 0.09,0.2 v 0 0 q 0.1,0.04 0.48,0.04 v 0 h 0.58 v 0.54 z m 4.49,-7.62 -1.41,3.31 h 2.74 z"
       id="path15"
       inkscape:connector-curvature="0" />
  </g>
</svg>
